<svg width="1424" height="971" viewBox="0 0 1424 971" fill="none" xmlns="http://www.w3.org/2000/svg">
<g clip-path="url(#clip0_1_7)">
<rect width="1424" height="971" fill="url(#paint0_radial_1_7)"/>
<path d="M79.7783 263.135C81.6249 258.703 89.3795 257.369 93.372 256.481C97.7755 255.503 104.612 253.524 106.089 255.863C107.566 258.202 119.911 324.811 118.926 325.919C117.941 327.027 94.428 329.859 91.4735 328.012C88.5189 326.165 77.9318 267.567 79.7783 263.135Z" fill="#E1E1E1"/>
<path fill-rule="evenodd" clip-rule="evenodd" d="M288.394 520.936C286.567 517.952 286.335 514.801 289.325 511.611C297.433 502.961 321.686 508.406 350.525 514.882C360.806 517.19 371.67 519.629 382.593 521.607C639.356 547.58 839.752 764.387 839.752 1028C839.752 1309.11 611.865 1537 330.752 1537C49.6393 1537 -178.248 1309.11 -178.248 1028C-178.248 928.349 -178.156 871.356 -128.663 792.863C-84.0462 712.384 -17.2209 645.489 60.5012 597.962C70.6403 589.344 89.9283 572.63 98.765 563.793C108.927 553.631 119.226 555.996 124.659 564.239C177.033 540.935 232.568 526.011 288.394 520.936Z" fill="url(#paint1_linear_1_7)"/>
<path fill-rule="evenodd" clip-rule="evenodd" d="M99.8671 241.753C95.7526 241.174 91.8165 239.483 89.1631 236.031C81.518 226.085 96.3794 216.588 103.105 219.066C109.831 221.544 120.158 233.8 117.63 237.55C116.622 239.045 113.106 240.688 108.759 241.493L121.693 252.498L111.191 261.809L99.8671 241.753Z" fill="#FFB287"/>
<path fill-rule="evenodd" clip-rule="evenodd" d="M94.3933 217.596C92.5705 218.431 90.3558 220.129 89.5686 221.007C89.0082 219.37 88.0263 217.864 86.7164 216.712C85.4436 215.592 83.9307 215.019 82.4147 214.357C81.7158 214.052 80.9876 213.778 80.2313 213.741C79.4608 213.703 78.7023 213.9 78.0417 214.259C77.3658 214.626 76.7891 215.157 76.3322 215.773C76.1301 216.045 76.0079 216.356 75.8202 216.635C75.6281 216.921 75.3687 216.872 75.0484 216.876C74.2768 216.885 73.4716 217.265 72.8602 217.688C72.1744 218.162 71.6145 218.826 71.2043 219.553C70.805 220.261 70.538 221.073 70.5381 221.91C70.538 222.283 70.5807 222.67 70.704 223.029C70.7547 223.176 70.8038 223.246 70.7314 223.381C70.6644 223.506 70.5491 223.61 70.4774 223.735C69.7837 224.95 69.6152 226.468 70.0256 227.861C70.2651 228.673 71.0333 229.796 72.0721 230.898C73.111 231.999 76.753 234.047 78.6648 234.277C80.3713 234.482 82.1888 234.005 83.646 233.209C83.6568 234.84 84.1396 236.463 84.7791 237.981C85.4737 239.63 86.3761 241.184 87.4682 242.613C88.5059 243.972 89.6933 245.328 91.0993 246.312C92.4141 247.231 93.8615 247.658 95.399 247.381C96.1033 247.253 96.7809 247.026 97.4454 246.778C98.1003 246.534 98.752 246.283 99.3568 245.936C100.501 245.278 101.585 244.255 101.648 242.825C101.67 242.309 101.657 241.699 101.552 241.186C101.514 241.001 101.486 240.884 101.295 240.841C101.066 240.789 100.803 240.827 100.572 240.832C99.2564 240.861 98.0379 240.423 97.0251 239.517C95.9975 238.597 95.1 237.03 95.6999 235.7C96.4403 234.057 98.3569 233.49 99.9739 233.111C98.9846 231.059 98.6296 228.737 99.4584 226.659C100.375 224.359 102.188 222.579 103.255 220.357C103.533 219.778 103.798 219.167 103.788 218.498C103.784 218.219 103.761 217.872 103.63 217.614C103.457 217.275 103.075 217.202 102.748 217.109C101.012 216.615 96.2162 216.762 94.3933 217.596Z" fill="#191847"/>
<path fill-rule="evenodd" clip-rule="evenodd" d="M131.63 308.329L205.583 349.515L264.502 386.413L270.579 382.905L156.28 294.098L131.63 308.329Z" fill="white"/>
<path fill-rule="evenodd" clip-rule="evenodd" d="M259.369 386.103C259.676 387.942 260.046 389.238 260.479 389.988C261.007 390.902 261.928 392.147 263.244 393.723C264.303 393.111 273.825 387.614 291.807 377.232C291.133 374.349 289.94 373.272 288.227 374C286.515 374.727 285.085 375.318 283.936 375.771L267.243 377.517C266.922 377.551 266.689 377.838 266.722 378.16C266.723 378.165 266.723 378.17 266.724 378.176L267.066 380.739C265.984 382.284 264.981 383.324 264.055 383.859C263.303 384.293 262.089 384.589 260.413 384.746L260.413 384.746C259.77 384.807 259.298 385.377 259.358 386.02C259.361 386.048 259.365 386.075 259.369 386.103Z" fill="#FFCA00"/>
<path d="M291.692 376.634C291.317 376.404 272.205 387.337 262.696 392.832C262.594 393.339 263.072 393.819 263.477 394.189C263.882 394.559 291.983 378.516 292.252 377.899C292.521 377.281 292.162 376.921 291.692 376.634Z" fill="#CBA71E"/>
<path fill-rule="evenodd" clip-rule="evenodd" d="M251.75 382.42L261.422 372.109C247.426 359.725 231.381 346.467 213.288 332.336C195.194 318.206 176.922 305.038 158.47 292.833L125.373 311.942C147.402 328.137 168.86 342.021 189.746 353.593C210.632 365.165 231.299 374.774 251.75 382.42Z" fill="url(#paint2_radial_1_7)"/>
<path fill-rule="evenodd" clip-rule="evenodd" d="M129.157 309.757C138.369 333.915 147.826 366.115 147.683 367.36C147.588 368.19 135.074 382.347 110.142 409.83L114.549 414.431C147.999 388.098 164.868 372.913 165.155 368.874C165.586 362.816 160.426 319.904 153.913 295.464L129.157 309.757Z" fill="url(#paint3_linear_1_7)"/>
<path fill-rule="evenodd" clip-rule="evenodd" d="M118.224 398.988L125.519 406.283C154.193 392.92 169.917 381.535 172.691 372.13C175.465 362.725 169.847 336.799 155.837 294.353L124.276 312.575C137.207 346.49 143.754 364.27 143.917 365.913C144.08 367.556 135.516 378.581 118.224 398.988Z" fill="url(#paint4_radial_1_7)"/>
<path fill-rule="evenodd" clip-rule="evenodd" d="M110.352 406.733C108.593 407.354 107.382 407.943 106.718 408.501C105.91 409.179 104.844 410.302 103.52 411.872C104.307 412.809 111.373 421.231 124.721 437.138C127.442 435.973 128.296 434.611 127.282 433.051C126.268 431.491 125.439 430.185 124.793 429.132L120.174 412.996C120.085 412.685 119.762 412.506 119.451 412.595C119.446 412.596 119.441 412.598 119.435 412.599L116.971 413.381C115.261 412.584 114.063 411.776 113.376 410.958C112.817 410.292 112.315 409.148 111.869 407.525L111.869 407.525C111.698 406.903 111.054 406.536 110.431 406.708C110.405 406.715 110.378 406.723 110.352 406.733Z" fill="#FFCA00"/>
<path fill-rule="evenodd" clip-rule="evenodd" d="M170.423 257.493L180.129 244.82C178.914 237.193 179.547 232.807 182.027 231.664C183.553 229.925 184.015 240.036 187.323 237.684C190.632 235.332 196.603 224.816 198.724 225.483C201.862 226.47 202.527 233.451 201.483 237.529C199.533 245.15 196.706 248.708 188.726 255.252C184.554 258.673 180.583 263.596 176.812 270.021L170.423 257.493Z" fill="url(#paint5_linear_1_7)"/>
<mask id="mask0_1_7" style="mask-type:alpha" maskUnits="userSpaceOnUse" x="170" y="225" width="32" height="46">
<path fill-rule="evenodd" clip-rule="evenodd" d="M170.423 257.493L180.129 244.82C178.914 237.193 179.547 232.807 182.027 231.664C183.553 229.925 184.015 240.036 187.323 237.684C190.632 235.332 196.604 224.816 198.724 225.483C201.862 226.47 202.527 233.451 201.483 237.529C199.533 245.15 196.706 248.708 188.726 255.252C184.554 258.673 180.583 263.596 176.812 270.021L170.423 257.493Z" fill="url(#paint6_linear_1_7)"/>
</mask>
<g mask="url(#mask0_1_7)">
<path d="M179.448 242.619C179.042 242.879 179.4 245.409 179.629 246.641C180.028 246.894 184.666 255.373 188.253 256.315C191.84 257.257 194.34 253.452 194.666 252.691C194.992 251.931 185.1 243.379 183.144 242.292C181.187 241.205 179.955 242.292 179.448 242.619Z" fill="#E1E1E1"/>
</g>
<path d="M149.535 245.634L130.063 272.73L139.508 275.139L154.662 250.093C161.087 243.576 163.692 240.018 162.477 239.42C160.654 238.522 159.318 240.933 157.99 240.526C156.661 240.119 156.449 236.137 156.409 232.35C156.369 228.563 154.791 229.806 154.044 230.785C152.082 234.826 150.579 239.776 149.535 245.634Z" fill="#E1E1E1"/>
<mask id="mask1_1_7" style="mask-type:alpha" maskUnits="userSpaceOnUse" x="130" y="229" width="33" height="47">
<path d="M149.535 245.634L130.062 272.73L139.508 275.139L154.662 250.093C161.087 243.576 163.692 240.018 162.477 239.42C160.653 238.522 159.318 240.933 157.99 240.526C156.661 240.119 156.449 236.137 156.409 232.35C156.369 228.563 154.791 229.806 154.044 230.785C152.082 234.826 150.579 239.776 149.535 245.634Z" fill="#E1E1E1"/>
</mask>
<g mask="url(#mask1_1_7)">
<path d="M158.153 247.653C158.205 247.263 152.391 244.804 149.477 243.623C149.136 243.266 147.868 246.369 147.755 247.214C147.641 248.059 154.563 250.269 156.041 250.561C157.52 250.854 158.088 248.14 158.153 247.653Z" fill="#B9B9B9"/>
</g>
<path fill-rule="evenodd" clip-rule="evenodd" d="M129.26 264.771C135.379 261.152 142.839 255.111 148.389 244.492L156.259 250.178C153.678 259.664 148.026 269.497 140.477 273.577C134.527 276.793 127.446 271.439 129.26 264.771Z" fill="#E1E1E1"/>
<path fill-rule="evenodd" clip-rule="evenodd" d="M144.654 272.289C152.132 270.145 161.983 261.894 174.208 247.537C182.582 253.229 187.596 257.839 189.249 261.367C180.031 275.882 170.494 285.487 161.291 291.071C164.78 296.43 167.145 302.08 167.659 308.194C168.718 320.762 136.212 327.324 128.1 334.41C111.622 319.105 118.337 305.143 111.47 293.227C103.949 280.179 102.831 254.057 104.372 253.167L118.424 245.055C124.95 254.568 135.19 263.293 144.654 272.289Z" fill="url(#paint7_linear_1_7)"/>
<path fill-rule="evenodd" clip-rule="evenodd" d="M1182.06 156.37C1165.46 148.849 1153.29 139.898 1154.89 136.376C1155.94 134.054 1162.72 134.673 1171.97 137.521C1170.37 139.18 1169.09 141.145 1168.23 143.318C1172.95 145.544 1175 146.421 1184 150.46C1193 154.5 1195.69 155.537 1201.15 157.842C1202.09 155.905 1202.69 153.774 1202.88 151.526C1211.13 156.604 1216.06 161.288 1215.01 163.61C1213.41 167.132 1198.66 163.89 1182.06 156.37Z" fill="#FF8A01"/>
<path d="M1166.95 149.993C1166.95 159.934 1175.01 167.993 1184.95 167.993C1194.89 167.993 1202.95 159.934 1202.95 149.993C1202.95 140.052 1194.89 131.993 1184.95 131.993C1175.01 131.993 1166.95 140.052 1166.95 149.993Z" fill="#383B51"/>
<path fill-rule="evenodd" clip-rule="evenodd" d="M1182.06 156.37C1165.46 148.849 1153.29 139.898 1154.89 136.376C1155.94 134.054 1162.72 134.673 1171.97 137.521C1170.37 139.18 1169.09 141.145 1168.23 143.318C1172.95 145.544 1175 146.421 1184 150.46C1193 154.5 1195.69 155.537 1201.15 157.842C1202.09 155.905 1202.69 153.774 1202.88 151.526C1211.13 156.604 1216.06 161.288 1215.01 163.61C1213.41 167.132 1198.66 163.89 1182.06 156.37Z" fill="#383B51"/>
<path d="M103.921 325.989C111.236 420.196 -279.248 448.638 -279.248 187.5C-279.248 -121 -374.748 -49.9999 -499.748 -40.4999" stroke="url(#paint8_linear_1_7)" stroke-width="5"/>
<path d="M490.252 277.5C486.252 279.9 486.252 282 485.752 283.5C485.252 282.5 484.752 280.4 480.752 278C483.752 275 484.252 274 485.252 272C485.752 273 486.252 275.1 490.252 277.5Z" fill="#383B51" stroke="#383B51"/>
<path d="M951.5 124.5C947.5 126.9 947.5 129 947 130.5C946.5 129.5 946 127.4 942 125C945 122 945.5 121 946.5 119C947 120 947.5 122.1 951.5 124.5Z" fill="#383B51" stroke="#383B51"/>
<path d="M397.5 88.5C393.5 90.9 393.5 93 393 94.5C392.5 93.5 392 91.4 388 89C391 86 391.5 85 392.5 83C393 84 393.5 86.1 397.5 88.5Z" fill="#383B51" stroke="#383B51"/>
<path d="M40.5001 277.5C36.5001 279.9 36.5001 282 36.0001 283.5C35.5001 282.5 35.0001 280.4 31.0001 278C34.0001 275 34.5001 274 35.5001 272C36.0001 273 36.5001 275.1 40.5001 277.5Z" fill="#383B51" stroke="#383B51"/>
<path d="M34.5001 568.5C30.5001 570.9 30.5001 573 30.0001 574.5C29.5001 573.5 29.0001 571.4 25.0001 569C28.0001 566 28.5001 565 29.5001 563C30.0001 564 30.5001 566.1 34.5001 568.5Z" fill="#383B51" stroke="#383B51"/>
<path d="M536.252 506.5C532.252 508.9 532.252 511 531.752 512.5C531.252 511.5 530.752 509.4 526.752 507C529.752 504 530.252 503 531.252 501C531.752 502 532.252 504.1 536.252 506.5Z" fill="#383B51" stroke="#383B51"/>
<path d="M589.252 196.5C585.252 198.9 585.252 201 584.752 202.5C584.252 201.5 583.752 199.4 579.752 197C582.752 194 583.252 193 584.252 191C584.752 192 585.252 194.1 589.252 196.5Z" fill="#383B51" stroke="#383B51"/>
<path d="M1052.5 77.5C1048.5 79.9 1048.5 82 1048 83.5C1047.5 82.5 1047 80.4 1043 78C1046 75 1046.5 74 1047.5 72C1048 73 1048.5 75.1 1052.5 77.5Z" fill="#383B51" stroke="#383B51"/>
<path d="M284.252 261.5C280.252 263.9 280.252 266 279.752 267.5C279.252 266.5 278.752 264.4 274.752 262C277.752 259 278.252 258 279.252 256C279.752 257 280.252 259.1 284.252 261.5Z" fill="#383B51" stroke="#383B51"/>
<path d="M189.752 264C189.752 262.8 177.419 252.5 171.252 247.5C171.252 246 172.752 240.5 174.752 240.5C176.752 240.5 195.252 257.5 195.752 258C196.252 258.5 189.752 265.5 189.752 264Z" fill="url(#paint9_linear_1_7)"/>
<path d="M156.581 254.278C156.469 253.682 149.084 249.762 145.405 247.878C145.265 247.131 145.534 244.249 146.575 244.054C147.617 243.858 158.84 250.508 159.147 250.708C159.455 250.908 156.721 255.025 156.581 254.278Z" fill="#E1E1E1"/>
<rect x="98.4578" y="326.616" width="10.2806" height="4.27451" rx="2" transform="rotate(-5.51925 98.4578 326.616)" fill="#E1E1E1"/>
<path d="M84.9764 256.752C86.7822 256.081 88.3993 258.101 87.3501 259.716L81.074 269.381C80.7258 269.917 80.1422 270.255 79.5037 270.289L78.2486 270.356C77.1456 270.415 76.2035 269.569 76.1445 268.466L75.7802 261.667C75.7334 260.793 76.2604 259.99 77.081 259.685L84.9764 256.752Z" fill="#E1E1E1"/>
<path d="M123.581 301.394C129.064 306.877 148.225 297.012 152.554 294.686C147.709 299.607 124.943 310.884 121.739 307.502C118.255 303.825 112.742 278.167 113.322 280.683C113.903 283.199 117.532 295.345 123.581 301.394Z" fill="#E1E1E1"/>
<path d="M150.955 321.017C151.389 320.664 151.786 320.356 152.124 320.105C151.979 320.303 151.567 320.617 150.955 321.017C148.606 322.928 145.18 326.155 144.259 328.704C142.896 332.479 134.193 338.142 133.773 337.722C133.354 337.303 130.313 331.745 131.571 331.221C132.672 330.762 146.685 323.807 150.955 321.017Z" fill="#E1E1E1"/>
<path d="M162.837 316.208C162.623 317.423 167.293 332.877 169.675 341.72C170.073 343.204 177.356 346.097 176.285 345.65C175.213 345.204 163.105 314.69 162.837 316.208Z" fill="#E1E1E1"/>
<path d="M72.9832 276.524C74.3502 273.243 80.0909 272.255 83.0465 271.598C86.3064 270.874 91.4836 270.782 92.5772 272.514C93.6708 274.245 102.693 322.182 101.964 323.003C101.235 323.823 83.8283 325.919 81.641 324.552C79.4538 323.185 71.6162 279.805 72.9832 276.524Z" fill="#E1E1E1"/>
<path d="M79.327 261.129C81.1736 256.697 88.9282 255.363 92.9207 254.475C97.3242 253.497 104.16 251.518 105.638 253.857C107.115 256.196 119.46 322.805 118.475 323.913C117.49 325.021 93.9767 327.853 91.0222 326.006C88.0676 324.159 77.4805 265.561 79.327 261.129Z" fill="#F5F5F5"/>
<mask id="mask2_1_7" style="mask-type:alpha" maskUnits="userSpaceOnUse" x="72" y="271" width="31" height="55">
<path d="M72.9832 276.524C74.3502 273.243 80.0909 272.255 83.0465 271.598C86.3064 270.874 91.4836 270.782 92.5772 272.514C93.6708 274.245 102.693 322.182 101.964 323.003C101.235 323.823 83.8283 325.919 81.641 324.552C79.4538 323.185 71.6162 279.805 72.9832 276.524Z" fill="white"/>
</mask>
<g mask="url(#mask2_1_7)">
<path d="M78.9038 291.17C78.8577 290.94 75.7695 273.426 75.0781 272.919" stroke="#FFCA00" stroke-width="3"/>
</g>
<path d="M95.3061 319.233C94.2307 318.824 89.8647 294.992 87.8162 283.128C87.432 271.541 102.284 271.285 104.268 279.735C104.546 280.918 112.463 316.801 112.271 317.697C112.079 318.593 96.6505 319.746 95.3061 319.233Z" fill="white"/>
<path d="M93.2904 316.403C92.0234 315.92 86.88 287.845 84.4666 273.868C84.0141 260.218 101.511 259.916 103.849 269.871C104.176 271.264 113.502 313.537 113.276 314.593C113.05 315.649 94.8742 317.007 93.2904 316.403Z" fill="url(#paint10_linear_1_7)"/>
<path d="M93.6335 318.069C92.7725 317.274 92.8332 316.358 92.9712 316C94.4614 313.93 112.592 312.605 113.337 313.268C114.082 313.93 113.503 315.089 113.337 316C113.171 316.91 94.7098 319.063 93.6335 318.069Z" fill="#E1E1E1"/>
<path d="M145.851 285.56C150.675 291.279 153.833 292.707 155.292 292.649C151.348 296.819 132.206 304.842 129.244 301.132C126.577 297.791 119.459 280.121 117.521 276.22C117.234 276.038 117.067 275.848 117.038 275.648C116.981 275.248 117.162 275.499 117.521 276.22C120.892 278.367 140.768 279.533 145.851 285.56Z" fill="white"/>
<circle cx="98.8689" cy="219.813" r="34" fill="url(#paint11_linear_1_7)"/>
<mask id="mask3_1_7" style="mask-type:alpha" maskUnits="userSpaceOnUse" x="64" y="185" width="69" height="69">
<circle cx="98.8689" cy="219.813" r="34" fill="white"/>
</mask>
<g mask="url(#mask3_1_7)">
<path d="M127.095 237.976C129.314 236.315 119.847 249.339 115.513 252.713C115.513 253.411 97.0979 260.481 94.3052 259.608C91.5124 258.735 93.607 258.822 93.2579 256.291C92.9088 253.76 109.316 246.779 111.149 245.819C112.982 244.859 120.944 242.579 127.095 237.976Z" fill="#FEFFFF"/>
</g>
<path d="M75.5259 205.541C98.8959 184.995 119.466 202.154 118.331 200.301C113.222 191.959 103.589 188.647 96.8626 189.406C87.2562 190.489 78.7617 194.88 75.5259 205.541Z" fill="#242635"/>
<path d="M127.585 215.769C127.168 213.927 125.382 210.282 124.532 208.973C127.273 209.11 127.822 210.911 128.209 211.446C128.596 211.981 128.003 217.612 127.585 215.769Z" fill="#242635"/>
<circle cx="122.231" cy="266.517" r="7.33816" fill="#FFCA00"/>
<path d="M126.735 327.53C125.505 325.517 116.894 312.768 116.111 311.649C116.696 320.133 122.45 331.129 125.98 332.088C127.059 332.381 127.966 329.543 126.735 327.53Z" fill="#E1E1E1"/>
<mask id="mask4_1_7" style="mask-type:alpha" maskUnits="userSpaceOnUse" x="611" y="507" width="1018" height="1030">
<path fill-rule="evenodd" clip-rule="evenodd" d="M1077.64 520.937C1075.81 517.952 1075.58 514.801 1078.57 511.611C1086.68 502.961 1110.93 508.407 1139.77 514.882C1150.05 517.19 1160.92 519.629 1171.84 521.607C1428.6 547.58 1629 764.387 1629 1028C1629 1309.11 1401.11 1537 1120 1537C838.887 1537 611 1309.11 611 1028C611 928.349 611.092 871.357 660.585 792.863C705.202 712.384 772.027 645.489 849.749 597.962C859.888 589.344 879.176 572.63 888.013 563.793C898.175 553.631 908.474 555.996 913.907 564.24C966.281 540.935 1021.82 526.011 1077.64 520.937Z" fill="url(#paint12_linear_1_7)"/>
</mask>
<g mask="url(#mask4_1_7)">
<g filter="url(#filter0_f_1_7)">
<path d="M645.559 988.913C498.347 1177.65 318.156 1175.29 285.654 1043.51C165.775 557.452 649.455 588.164 686.54 694.329C698.594 728.837 829.573 752.993 645.559 988.913Z" fill="url(#paint13_radial_1_7)"/>
</g>
</g>
<mask id="mask5_1_7" style="mask-type:alpha" maskUnits="userSpaceOnUse" x="-233" y="596" width="1018" height="1018">
<path d="M785 1105C785 1386.11 557.113 1614 276 1614C-5.11295 1614 -233 1386.11 -233 1105C-233 1015.79 -221.124 937.765 -180.803 864.857C-94.0725 708.026 84.0997 596 276 596C557.113 596 785 823.887 785 1105Z" fill="url(#paint14_linear_1_7)"/>
</mask>
<g mask="url(#mask5_1_7)">
<ellipse cx="32.5881" cy="885.083" rx="298.437" ry="288.041" transform="rotate(56.6945 32.5881 885.083)" fill="url(#paint15_radial_1_7)"/>
</g>
<path d="M227.322 513.139C296.901 503.341 358.256 502.627 350.532 533.165C342.807 563.703 296.901 604.149 227.322 613.947C157.743 623.744 79.0779 613.937 86.8027 583.399C94.5274 552.861 157.743 522.937 227.322 513.139Z" fill="url(#paint16_radial_1_7)"/>
<mask id="mask6_1_7" style="mask-type:alpha" maskUnits="userSpaceOnUse" x="86" y="507" width="266" height="111">
<path d="M227.322 513.139C296.901 503.341 358.256 502.627 350.532 533.165C342.807 563.703 296.901 604.149 227.322 613.947C157.743 623.744 79.0779 613.937 86.8027 583.399C94.5274 552.861 157.743 522.937 227.322 513.139Z" fill="url(#paint17_radial_1_7)"/>
</mask>
<g mask="url(#mask6_1_7)">
<g filter="url(#filter1_f_1_7)">
<path d="M333.765 560.406C357.749 487.946 23.9607 563.282 159.649 610.399C146.501 623.547 58.1474 591.584 46.9478 552.142C35.7482 512.7 65.9385 529.256 113.172 496.144C160.405 463.032 297.722 467.902 346.902 468.875C396.083 469.849 388.292 505.883 392.675 522.926C396.181 536.56 342.043 546.285 333.765 560.406Z" fill="url(#paint18_radial_1_7)"/>
</g>
</g>
<ellipse cx="131.174" cy="161.838" rx="131.174" ry="161.838" transform="matrix(0.960901 0.276894 -0.234256 0.972175 -139.137 722.211)" fill="#2C2F41"/>
<ellipse cx="181.362" cy="198.028" rx="181.362" ry="198.028" transform="matrix(0.863252 0.504773 0.483855 -0.875148 297.156 981.478)" fill="#2C2F42"/>
<ellipse cx="121.363" cy="149.733" rx="121.363" ry="149.733" transform="matrix(0.960901 0.276894 -0.234256 0.972175 -132.545 736.696)" fill="url(#paint19_radial_1_7)"/>
<ellipse cx="170.29" cy="185.939" rx="170.29" ry="185.939" transform="matrix(0.862992 0.505218 0.483363 -0.87542 311.65 972.554)" fill="url(#paint20_radial_1_7)"/>
<path d="M226.709 515.563C261.451 510.671 293.942 508.079 316.733 510.463C328.141 511.657 336.921 514.08 342.363 517.934C347.748 521.748 349.742 526.85 348.056 533.514C344.44 547.807 331.766 564.809 311.175 579.569C290.621 594.303 262.308 606.683 227.935 611.523C193.367 616.391 156.554 616.381 129.406 611.383C115.82 608.882 104.789 605.155 97.6592 600.262C90.4751 595.333 87.6433 589.514 89.2782 583.05C91.0038 576.229 95.8555 569.273 103.546 562.386C111.262 555.478 121.706 548.765 134.238 542.602C159.292 530.282 192.147 520.43 226.709 515.563Z" stroke="#2C2F41" stroke-width="5"/>
<g filter="url(#filter2_f_1_7)">
<path d="M360.07 727.081C269.835 809.254 333.079 1048.89 339.667 1052.79C423.295 1258.44 156.952 1138.17 204.093 894.529C251.234 650.888 450.304 644.909 360.07 727.081Z" fill="#2C2F41"/>
</g>
<path d="M494.596 553.539C486.851 553.539 476.353 549.764 473.043 546.332C466.66 539.712 487.943 533.685 495.391 538.91C502.839 544.134 498.621 553.539 494.596 553.539Z" fill="#313447"/>
<path d="M288.886 684.099C300.993 680.558 313.455 679.772 318.796 688.05C326.492 699.977 315.58 702.811 306.835 710.104C298.459 717.089 294.231 729.119 284.218 719.441C272.32 707.942 282.593 685.939 288.886 684.099Z" fill="#313447"/>
<path d="M122.505 741.528C124.893 743.68 126.731 746.278 125.65 748.545C123.565 752.915 113.311 749.363 114.213 745.244C115.116 741.124 121.263 740.409 122.505 741.528Z" fill="#313447"/>
<path d="M470.649 630.885C473.037 633.037 474.875 635.635 473.794 637.901C471.709 642.272 461.455 638.72 462.358 634.601C463.26 630.481 469.408 629.766 470.649 630.885Z" fill="#313447"/>
<path d="M21.5215 680.539C17.4708 679.244 19.2552 675.171 21.5215 670.976C25.8922 662.885 41.4324 661.832 36.3727 668.943C31.0986 676.356 25.3559 681.765 21.5215 680.539Z" fill="#313447"/>
<path d="M255.238 922.331C250.369 931.752 238.793 926.703 226.978 920.479C204.191 908.476 222.63 889.412 247.237 893.178C271.832 896.943 259.846 913.412 255.238 922.331Z" fill="#313447"/>
<path d="M365.567 524.922C365.254 527.615 364.429 530.215 362.563 530.816C358.964 531.974 356.784 523.606 359.722 521.855C362.66 520.103 365.73 523.522 365.567 524.922Z" fill="#383B51"/>
<path d="M80.803 593.47C82.8562 595.24 84.5465 597.382 83.9966 599.263C82.936 602.892 74.7864 600.003 74.9847 596.588C75.183 593.173 79.7357 592.55 80.803 593.47Z" fill="#383B51"/>
<path fill-rule="evenodd" clip-rule="evenodd" d="M1113.98 528.859C1105.39 518.789 1102.82 507.783 1102.61 503.539C1106.84 503.129 1118.11 504.067 1129.32 511.091C1143.34 519.872 1168.81 542.97 1168.89 544.152C1168.9 544.218 1168.98 544.295 1169.12 544.381L1201.45 549.659L1188.6 565.373C1198.66 574.686 1213.4 591.818 1204.87 591.648C1199.1 591.532 1187.52 585.394 1177.34 579.146L1165.56 593.554L1159.9 578.591C1158.55 575.868 1157.21 572.851 1156.04 570.215C1154.28 566.258 1152.9 563.157 1152.46 563.189C1151.27 563.276 1124.71 541.447 1113.98 528.859Z" fill="url(#paint21_linear_1_7)"/>
<path d="M219.2 44C219.2 53.9411 227.259 62 237.2 62C247.141 62 255.2 53.9411 255.2 44C255.2 34.0589 247.141 26 237.2 26C227.259 26 219.2 34.0589 219.2 44Z" fill="#383B51"/>
<path fill-rule="evenodd" clip-rule="evenodd" d="M234.312 50.3762C217.71 42.8558 205.545 33.9046 207.141 30.383C208.193 28.0605 214.967 28.6798 224.221 31.5281C222.626 33.1872 221.347 35.1513 220.478 37.3243C225.202 39.5506 227.252 40.4272 236.252 44.467C245.252 48.5067 247.946 49.5433 253.403 51.8485C254.343 49.9116 254.946 47.7809 255.136 45.5325C263.379 50.6103 268.312 55.2944 267.26 57.6169C265.665 61.1384 250.913 57.8967 234.312 50.3762Z" fill="#383B51"/>
<ellipse cx="38.5" cy="61.5" rx="38.5" ry="61.5" transform="matrix(-1 0 0 1 1449 447)" fill="#383B51"/>
<ellipse cx="77.5" cy="61.5" rx="77.5" ry="61.5" transform="matrix(-1 0 0 1 1471 857)" fill="#383B51"/>
<path d="M1378.83 905.903C1390.94 902.362 1403.4 901.576 1408.74 909.854C1416.44 921.781 1405.53 924.616 1396.78 931.908C1388.41 938.894 1384.18 950.924 1374.17 941.246C1362.27 929.747 1372.54 907.744 1378.83 905.903Z" fill="#313447"/>
<path d="M1050 862.565C1039.47 866.739 1039.47 870.391 1038.16 873C1036.84 871.261 1035.53 867.609 1025 863.435C1032.89 858.217 1034.21 856.478 1036.84 853C1038.16 854.739 1039.47 858.391 1050 862.565Z" fill="#383B51" stroke="#383B51"/>
<path d="M964.5 263.5C960.5 265.9 960.5 268 960 269.5C959.5 268.5 959 266.4 955 264C958 261 958.5 260 959.5 258C960 259 960.5 261.1 964.5 263.5Z" fill="#383B51" stroke="#383B51"/>
<path d="M1130.5 343.5C1126.5 345.9 1126.5 348 1126 349.5C1125.5 348.5 1125 346.4 1121 344C1124 341 1124.5 340 1125.5 338C1126 339 1126.5 341.1 1130.5 343.5Z" fill="#383B51" stroke="#383B51"/>
<path d="M1319 205.87C1315.21 211.922 1315.21 217.217 1314.74 221C1314.26 218.478 1313.79 213.183 1310 207.13C1312.84 199.565 1313.32 197.043 1314.26 192C1314.74 194.522 1315.21 199.817 1319 205.87Z" fill="#383B51" stroke="#383B51"/>
<path d="M1008.5 519.5C1004.5 521.9 1004.5 524 1004 525.5C1003.5 524.5 1003 522.4 999 520C1002 517 1002.5 516 1003.5 514C1004 515 1004.5 517.1 1008.5 519.5Z" fill="#383B51" stroke="#383B51"/>
<path d="M1008.5 519.5C1004.5 521.9 1004.5 524 1004 525.5C1003.5 524.5 1003 522.4 999 520C1002 517 1002.5 516 1003.5 514C1004 515 1004.5 517.1 1008.5 519.5Z" fill="#383B51" stroke="#383B51"/>
<path d="M1143.5 828.5C1139.5 830.9 1139.5 833 1139 834.5C1138.5 833.5 1138 831.4 1134 829C1137 826 1137.5 825 1138.5 823C1139 824 1139.5 826.1 1143.5 828.5Z" fill="#383B51" stroke="#383B51"/>
</g>
<defs>
<filter id="filter0_f_1_7" x="246.605" y="609.505" width="516.356" height="547.703" filterUnits="userSpaceOnUse" color-interpolation-filters="sRGB">
<feFlood flood-opacity="0" result="BackgroundImageFix"/>
<feBlend mode="normal" in="SourceGraphic" in2="BackgroundImageFix" result="shape"/>
<feGaussianBlur stdDeviation="10" result="effect1_foregroundBlur_1_7"/>
</filter>
<filter id="filter1_f_1_7" x="34.6108" y="458.059" width="368.227" height="165.343" filterUnits="userSpaceOnUse" color-interpolation-filters="sRGB">
<feFlood flood-opacity="0" result="BackgroundImageFix"/>
<feBlend mode="normal" in="SourceGraphic" in2="BackgroundImageFix" result="shape"/>
<feGaussianBlur stdDeviation="5" result="effect1_foregroundBlur_1_7"/>
</filter>
<filter id="filter2_f_1_7" x="178.454" y="659.582" width="224.796" height="518.064" filterUnits="userSpaceOnUse" color-interpolation-filters="sRGB">
<feFlood flood-opacity="0" result="BackgroundImageFix"/>
<feBlend mode="normal" in="SourceGraphic" in2="BackgroundImageFix" result="shape"/>
<feGaussianBlur stdDeviation="10" result="effect1_foregroundBlur_1_7"/>
</filter>
<radialGradient id="paint0_radial_1_7" cx="0" cy="0" r="1" gradientUnits="userSpaceOnUse" gradientTransform="translate(908.5 322.5) rotate(143.655) scale(1230.08 1803.95)">
<stop stop-color="#242535"/>
<stop offset="0.861983" stop-color="#242535"/>
<stop offset="1" stop-color="#242535"/>
</radialGradient>
<linearGradient id="paint1_linear_1_7" x1="204.252" y1="528.887" x2="553.819" y2="1266.81" gradientUnits="userSpaceOnUse">
<stop stop-color="#2C2F41"/>
<stop offset="0.283302" stop-color="#2C2F41"/>
<stop offset="0.51521" stop-color="#2C2F41"/>
<stop offset="1" stop-color="#2C2F41"/>
</linearGradient>
<radialGradient id="paint2_radial_1_7" cx="0" cy="0" r="1" gradientUnits="userSpaceOnUse" gradientTransform="translate(238.337 299.511) rotate(129.581) scale(113.176 79.9347)">
<stop stop-color="#C3C3C3"/>
<stop offset="0.52403" stop-color="white"/>
<stop offset="1" stop-color="#C8C8C8"/>
</radialGradient>
<linearGradient id="paint3_linear_1_7" x1="112.738" y1="319.237" x2="154.411" y2="391.416" gradientUnits="userSpaceOnUse">
<stop stop-color="white"/>
<stop offset="1" stop-color="#F9F9F9"/>
</linearGradient>
<radialGradient id="paint4_radial_1_7" cx="0" cy="0" r="1" gradientUnits="userSpaceOnUse" gradientTransform="translate(123.87 363.357) rotate(11.7771) scale(48.001 49.107)">
<stop stop-color="#5A5A5A"/>
<stop offset="0.596197" stop-color="#EEEEEE"/>
<stop offset="1" stop-color="white"/>
</radialGradient>
<linearGradient id="paint5_linear_1_7" x1="181.001" y1="232.038" x2="194.332" y2="262.304" gradientUnits="userSpaceOnUse">
<stop stop-color="white"/>
<stop offset="1" stop-color="#F9F9F9"/>
</linearGradient>
<linearGradient id="paint6_linear_1_7" x1="181.001" y1="232.038" x2="194.332" y2="262.304" gradientUnits="userSpaceOnUse">
<stop stop-color="white"/>
<stop offset="1" stop-color="#F9F9F9"/>
</linearGradient>
<linearGradient id="paint7_linear_1_7" x1="124.927" y1="241.3" x2="167.274" y2="314.647" gradientUnits="userSpaceOnUse">
<stop stop-color="white"/>
<stop offset="1" stop-color="#F9F9F9"/>
</linearGradient>
<linearGradient id="paint8_linear_1_7" x1="-340.507" y1="-11.4847" x2="104.023" y2="384.301" gradientUnits="userSpaceOnUse">
<stop stop-color="#242635"/>
<stop offset="1" stop-color="#494D69"/>
</linearGradient>
<linearGradient id="paint9_linear_1_7" x1="183.516" y1="240.5" x2="183.516" y2="264.21" gradientUnits="userSpaceOnUse">
<stop stop-color="white"/>
<stop offset="1" stop-color="#F9F9F9"/>
</linearGradient>
<linearGradient id="paint10_linear_1_7" x1="112.477" y1="284.238" x2="86.5646" y2="288.453" gradientUnits="userSpaceOnUse">
<stop stop-color="#EFEFEF"/>
<stop offset="0.534453" stop-color="white" stop-opacity="0.465547"/>
<stop offset="1" stop-color="#EFEFEF" stop-opacity="0"/>
</linearGradient>
<linearGradient id="paint11_linear_1_7" x1="114.462" y1="166.617" x2="98.8689" y2="253.813" gradientUnits="userSpaceOnUse">
<stop stop-color="#7177D1" stop-opacity="0.12"/>
<stop offset="1" stop-color="#242635" stop-opacity="0.22"/>
</linearGradient>
<linearGradient id="paint12_linear_1_7" x1="993.5" y1="528.888" x2="1343.07" y2="1266.81" gradientUnits="userSpaceOnUse">
<stop stop-color="#3C417C"/>
<stop offset="1" stop-color="#0C0D1C"/>
</linearGradient>
<radialGradient id="paint13_radial_1_7" cx="0" cy="0" r="1" gradientUnits="userSpaceOnUse" gradientTransform="translate(707.781 994.791) rotate(-138.513) scale(446.825 699.472)">
<stop stop-color="#303361" stop-opacity="0.83"/>
<stop offset="0.983218" stop-color="#191B34" stop-opacity="0"/>
</radialGradient>
<linearGradient id="paint14_linear_1_7" x1="149.5" y1="617.5" x2="492.5" y2="1350" gradientUnits="userSpaceOnUse">
<stop stop-color="#3C417C"/>
<stop offset="1" stop-color="#0C0D1C"/>
</linearGradient>
<radialGradient id="paint15_radial_1_7" cx="0" cy="0" r="1" gradientUnits="userSpaceOnUse" gradientTransform="translate(1.76636 899.454) rotate(-84.6361) scale(303.131 313.29)">
<stop offset="0.477659" stop-color="#292C3E"/>
<stop offset="1" stop-color="#2D3044" stop-opacity="0"/>
</radialGradient>
<radialGradient id="paint16_radial_1_7" cx="0" cy="0" r="1" gradientUnits="userSpaceOnUse" gradientTransform="translate(216.967 565.001) rotate(174.18) scale(126.371 47.9897)">
<stop stop-color="#2C2F42"/>
<stop offset="0.52458" stop-color="#2B2E40"/>
<stop offset="0.974002" stop-color="#262837"/>
</radialGradient>
<radialGradient id="paint17_radial_1_7" cx="0" cy="0" r="1" gradientUnits="userSpaceOnUse" gradientTransform="translate(216.967 565.001) rotate(173.891) scale(130.834 49.6844)">
<stop stop-color="#2C2F42"/>
<stop offset="0.791667" stop-color="#313567"/>
<stop offset="1" stop-color="#2E3263"/>
</radialGradient>
<radialGradient id="paint18_radial_1_7" cx="0" cy="0" r="1" gradientUnits="userSpaceOnUse" gradientTransform="translate(212.157 508.896) rotate(72.7185) scale(95.5486 205.205)">
<stop offset="0.140928" stop-color="#252737"/>
<stop offset="1" stop-color="#272A3B"/>
</radialGradient>
<radialGradient id="paint19_radial_1_7" cx="0" cy="0" r="1" gradientUnits="userSpaceOnUse" gradientTransform="translate(128.558 181.983) rotate(-97.2568) scale(182.491 148.312)">
<stop stop-color="#2D3041"/>
<stop offset="0.596662" stop-color="#2B2E41"/>
<stop offset="1" stop-color="#242635"/>
</radialGradient>
<radialGradient id="paint20_radial_1_7" cx="0" cy="0" r="1" gradientUnits="userSpaceOnUse" gradientTransform="translate(302.492 138.575) rotate(142.397) scale(318.966 300.84)">
<stop stop-color="#252737"/>
<stop offset="0.60513" stop-color="#2C2F42"/>
<stop offset="0.841688" stop-color="#262838"/>
<stop offset="1" stop-color="#252737"/>
</radialGradient>
<linearGradient id="paint21_linear_1_7" x1="1092.73" y1="533.482" x2="1226.4" y2="604.123" gradientUnits="userSpaceOnUse">
<stop stop-color="#383B51"/>
<stop offset="1" stop-color="#383B51"/>
</linearGradient>
<clipPath id="clip0_1_7">
<rect width="1424" height="971" fill="white"/>
</clipPath>
</defs>
</svg>
