<svg width="269" height="251" viewBox="0 0 269 251" fill="none" xmlns="http://www.w3.org/2000/svg">
<path d="M240.859 124.136C240.859 186.667 187.107 237.359 120.8 237.359C54.4927 237.359 0.740234 186.667 0.740234 124.136C0.740234 61.6047 54.4927 10.9131 120.8 10.9131C187.107 10.9131 240.859 61.6047 240.859 124.136Z" fill="url(#paint0_linear_1018_136)"/>
<g filter="url(#filter0_dd_1018_136)">
<path fill-rule="evenodd" clip-rule="evenodd" d="M119.15 58.8766L163.494 164.229V158.978L122.473 58.8766H119.15ZM76.6265 152.741L114.579 62.5716L114.658 62.7575L114.732 62.58L159.709 169.436H150.199L136.408 138.061C131.712 138.061 128.022 138.061 122.319 138.061C119.379 138.061 114.15 144.97 111.36 145.531L119.659 127.603C120.693 127.534 132.705 127.875 132.705 127.875L114.654 84.9883L81.3817 164.038L76.6265 152.741ZM90.7158 181.388L122.473 105.192L114.727 99.5557L84.4538 170.93L89.9147 187.365L90.7158 181.388Z" fill="#764BC5"/>
<path d="M89.7067 185.153L86.3644 175.094L89.504 180.338L90.1889 181.482L90.197 181.495L89.7067 185.153ZM90.362 179.824L85.0134 170.891L114.942 100.33L121.86 105.364L90.6355 180.281L90.362 179.824ZM77.169 152.741L114.58 63.8595L114.658 64.0459L114.732 63.8694L158.956 168.936H150.525L136.866 137.86L136.734 137.561H136.408H136.381H136.353H136.326H136.298H136.271H136.243H136.216H136.189H136.161H136.134H136.107H136.079H136.052H136.025H135.998H135.971H135.943H135.916H135.889H135.862H135.835H135.808H135.781H135.754H135.727H135.7H135.673H135.646H135.619H135.592H135.565H135.539H135.512H135.485H135.458H135.431H135.405H135.378H135.351H135.324H135.298H135.271H135.244H135.218H135.191H135.164H135.138H135.111H135.085H135.058H135.032H135.005H134.979H134.952H134.926H134.899H134.873H134.846H134.82H134.794H134.767H134.741H134.715H134.688H134.662H134.636H134.609H134.583H134.557H134.531H134.504H134.478H134.452H134.426H134.4H134.373H134.347H134.321H134.295H134.269H134.243H134.217H134.191H134.165H134.138H134.112H134.086H134.06H134.034H134.008H133.982H133.956H133.93H133.904H133.879H133.853H133.827H133.801H133.775H133.749H133.723H133.697H133.671H133.645H133.62H133.594H133.568H133.542H133.516H133.491H133.465H133.439H133.413H133.387H133.362H133.336H133.31H133.284H133.259H133.233H133.207H133.181H133.156H133.13H133.104H133.079H133.053H133.027H133.002H132.976H132.95H132.925H132.899H132.873H132.848H132.822H132.796H132.771H132.745H132.72H132.694H132.668H132.643H132.617H132.592H132.566H132.54H132.515H132.489H132.464H132.438H132.412H132.387H132.361H132.336H132.31H132.285H132.259H132.233H132.208H132.182H132.157H132.131H132.106H132.08H132.055H132.029H132.003H131.978H131.952H131.927H131.901H131.876H131.85H131.825H131.799H131.773H131.748H131.722H131.697H131.671H131.646H131.62H131.595H131.569H131.543H131.518H131.492H131.467H131.441H131.416H131.39H131.364H131.339H131.313H131.288H131.262H131.236H131.211H131.185H131.16H131.134H131.108H131.083H131.057H131.031H131.006H130.98H130.955H130.929H130.903H130.878H130.852H130.826H130.801H130.775H130.749H130.723H130.698H130.672H130.646H130.621H130.595H130.569H130.543H130.518H130.492H130.466H130.44H130.415H130.389H130.363H130.337H130.311H130.285H130.26H130.234H130.208H130.182H130.156H130.13H130.104H130.079H130.053H130.027H130.001H129.975H129.949H129.923H129.897H129.871H129.845H129.819H129.793H129.767H129.741H129.715H129.689H129.663H129.637H129.611H129.584H129.558H129.532H129.506H129.48H129.454H129.428H129.401H129.375H129.349H129.323H129.296H129.27H129.244H129.218H129.191H129.165H129.139H129.112H129.086H129.059H129.033H129.007H128.98H128.954H128.927H128.901H128.874H128.848H128.821H128.795H128.768H128.742H128.715H128.688H128.662H128.635H128.609H128.582H128.555H128.529H128.502H128.475H128.448H128.422H128.395H128.368H128.341H128.314H128.287H128.26H128.234H128.207H128.18H128.153H128.126H128.099H128.072H128.045H128.018H127.99H127.963H127.936H127.909H127.882H127.855H127.827H127.8H127.773H127.746H127.718H127.691H127.664H127.636H127.609H127.582H127.554H127.527H127.499H127.472H127.444H127.417H127.389H127.362H127.334H127.306H127.279H127.251H127.223H127.195H127.168H127.14H127.112H127.084H127.056H127.029H127.001H126.973H126.945H126.917H126.889H126.861H126.833H126.805H126.776H126.748H126.72H126.692H126.664H126.635H126.607H126.579H126.551H126.522H126.494H126.465H126.437H126.409H126.38H126.352H126.323H126.294H126.266H126.237H126.208H126.18H126.151H126.122H126.093H126.065H126.036H126.007H125.978H125.949H125.92H125.891H125.862H125.833H125.804H125.775H125.746H125.717H125.687H125.658H125.629H125.6H125.57H125.541H125.511H125.482H125.453H125.423H125.393H125.364H125.334H125.305H125.275H125.245H125.216H125.186H125.156H125.126H125.096H125.066H125.036H125.007H124.977H124.946H124.916H124.886H124.856H124.826H124.796H124.766H124.735H124.705H124.675H124.644H124.614H124.583H124.553H124.522H124.492H124.461H124.43H124.4H124.369H124.338H124.307H124.277H124.246H124.215H124.184H124.153H124.122H124.091H124.06H124.028H123.997H123.966H123.935H123.904H123.872H123.841H123.809H123.778H123.746H123.715H123.683H123.652H123.62H123.588H123.557H123.525H123.493H123.461H123.429H123.397H123.365H123.333H123.301H123.269H123.237H123.205H123.172H123.14H123.108H123.075H123.043H123.011H122.978H122.946H122.913H122.88H122.848H122.815H122.782H122.749H122.717H122.684H122.651H122.618H122.585H122.552H122.518H122.485H122.452H122.419H122.386H122.352H122.319C121.417 137.561 120.428 138.077 119.474 138.739C118.498 139.414 117.461 140.315 116.451 141.212C116.294 141.352 116.137 141.491 115.981 141.63C115.127 142.392 114.3 143.13 113.528 143.734C113.105 144.065 112.715 144.342 112.363 144.556L119.982 128.094C120.955 128.085 123.783 128.145 126.558 128.213C128.123 128.251 129.657 128.292 130.799 128.323C131.37 128.338 131.843 128.351 132.173 128.361L132.556 128.371L132.657 128.374L132.683 128.375L132.689 128.375L132.691 128.375L132.691 128.375C132.691 128.375 132.691 128.375 132.692 128.361L132.691 128.375L133.468 128.397L133.166 127.681L115.115 84.7944L114.654 83.6995L114.193 84.7943L81.3817 162.749L77.169 152.741ZM162.994 159.076V161.752L119.903 59.3766H122.138L162.994 159.076Z" stroke="#764BC5"/>
</g>
<path d="M117.949 111.056L115.2 99.6605H149.233V111.056H117.949Z" fill="#764BC5" stroke="#764BC5"/>
<defs>
<filter id="filter0_dd_1018_136" x="72.6265" y="58.8766" width="94.8677" height="136.488" filterUnits="userSpaceOnUse" color-interpolation-filters="sRGB">
<feFlood flood-opacity="0" result="BackgroundImageFix"/>
<feColorMatrix in="SourceAlpha" type="matrix" values="0 0 0 0 0 0 0 0 0 0 0 0 0 0 0 0 0 0 127 0" result="hardAlpha"/>
<feOffset dy="4"/>
<feGaussianBlur stdDeviation="2"/>
<feComposite in2="hardAlpha" operator="out"/>
<feColorMatrix type="matrix" values="0 0 0 0 0 0 0 0 0 0 0 0 0 0 0 0 0 0 0.25 0"/>
<feBlend mode="normal" in2="BackgroundImageFix" result="effect1_dropShadow_1018_136"/>
<feColorMatrix in="SourceAlpha" type="matrix" values="0 0 0 0 0 0 0 0 0 0 0 0 0 0 0 0 0 0 127 0" result="hardAlpha"/>
<feOffset dy="4"/>
<feGaussianBlur stdDeviation="2"/>
<feComposite in2="hardAlpha" operator="out"/>
<feColorMatrix type="matrix" values="0 0 0 0 0 0 0 0 0 0 0 0 0 0 0 0 0 0 0.25 0"/>
<feBlend mode="normal" in2="effect1_dropShadow_1018_136" result="effect2_dropShadow_1018_136"/>
<feBlend mode="normal" in="SourceGraphic" in2="effect2_dropShadow_1018_136" result="shape"/>
</filter>
<linearGradient id="paint0_linear_1018_136" x1="198.944" y1="211.849" x2="36.2953" y2="41.8973" gradientUnits="userSpaceOnUse">
<stop offset="0.973958"/>
<stop offset="1"/>
</linearGradient>
</defs>
</svg>
